<?xml version="1.0" encoding="UTF-8"?>
<svg version="1.1" xmlns="http://www.w3.org/2000/svg" width="279" height="237">
<path d="M0 0 C3.94280447 0.67358554 7.84180657 1.52587019 11.75 2.375 C22.51884068 4.60220616 33.04776534 6.14831105 44 7 C45.55121048 7.12257927 45.55121048 7.12257927 47.13375854 7.24763489 C70.89166375 9.05998345 94.58702767 9.34429638 118.40551758 9.31567383 C122.5703417 9.31106619 126.73487205 9.31789705 130.8996582 9.33618164 C153.72142796 9.43529845 176.43640233 9.1098661 199.21484375 7.609375 C200.17275 7.54700968 201.13065624 7.48464436 202.11758995 7.42038918 C217.42590043 6.39961532 232.41314582 4.71790861 247.30859375 0.90625 C251.67775942 -0.16639173 254.53920205 -0.51189485 259 0 C262.33377678 2.36142522 263.69652395 3.8619648 264.75 7.8125 C263.57868704 12.79058008 260.53663268 15.42298162 257 19 C255.96130652 20.09807648 254.92361842 21.19710449 253.88671875 22.296875 C252.7593648 23.4702434 251.63044877 24.64211292 250.5 25.8125 C249.70009644 26.65760132 249.70009644 26.65760132 248.8840332 27.51977539 C244.52399462 31.93958602 240.48798165 34.64408351 234.12890625 35.29296875 C233.28199219 35.25816406 232.43507812 35.22335938 231.5625 35.1875 C230.26505859 35.14689453 230.26505859 35.14689453 228.94140625 35.10546875 C228.30074219 35.07066406 227.66007813 35.03585938 227 35 C227 35.66 227 36.32 227 37 C226.34 37 225.68 37 225 37 C224.814375 37.5775 224.62875 38.155 224.4375 38.75 C221.98704927 42.58548809 218.0104348 43.9947826 214 46 C211.3276379 46.13415472 208.67749512 46.04318541 206 46 C206.01160156 46.92683594 206.02320313 47.85367188 206.03515625 48.80859375 C206.04417969 50.00613281 206.05320313 51.20367187 206.0625 52.4375 C206.07410156 53.63246094 206.08570313 54.82742187 206.09765625 56.05859375 C206 59 206 59 205 60 C203.33382885 60.04063832 201.66611905 60.042721 200 60 C200 62.64 200 65.28 200 68 C201.24136719 67.94199219 202.48273438 67.88398437 203.76171875 67.82421875 C205.40360814 67.77730762 207.04553832 67.73180891 208.6875 67.6875 C209.50412109 67.64560547 210.32074219 67.60371094 211.16210938 67.56054688 C215.33706555 67.47603359 217.45364227 67.64932109 221.04296875 69.953125 C223.70094769 74.0912958 223.74172901 77.24159199 223.625 82.0625 C223.64433594 82.86494141 223.66367188 83.66738281 223.68359375 84.49414062 C223.65101958 88.41932856 223.47682787 90.39014746 221.01171875 93.54296875 C216.94257686 95.51156788 213.63894513 95.44402778 209.1875 95.25 C208.39923828 95.23195313 207.61097656 95.21390625 206.79882812 95.1953125 C204.86535739 95.14844048 202.93251715 95.0767041 201 95 C201.14375533 99.66673258 201.28990438 104.33338748 201.4375 109 C201.45956512 109.69995087 201.48163025 110.39990173 201.50436401 111.12106323 C201.82868045 121.35304923 202.20107934 131.58115889 202.69506836 141.80664062 C202.91731955 146.6899063 203.01534574 151.55282773 202.99609375 156.44140625 C202.96549281 165.59108722 203.24246399 174.72987895 203.5 183.875 C203.54835104 185.64192233 203.59652922 187.4088494 203.64453125 189.17578125 C203.76103332 193.45057794 203.87985606 197.72530418 204 202 C204.969375 202.144375 205.93875 202.28875 206.9375 202.4375 C210 203 210 203 211 204 C211.25252843 207.78495555 211.18522639 211.58261696 211.1875 215.375 C211.19974609 216.44234375 211.21199219 217.5096875 211.22460938 218.609375 C211.22654297 219.63289062 211.22847656 220.65640625 211.23046875 221.7109375 C211.23457764 222.65243652 211.23868652 223.59393555 211.24291992 224.56396484 C211 227 211 227 209 230 C206.91271973 230.3742218 206.91271973 230.3742218 204.30664062 230.37231445 C203.33223022 230.37854324 202.35781982 230.38477203 201.35388184 230.39118958 C199.77105408 230.37737495 199.77105408 230.37737495 198.15625 230.36328125 C197.07621704 230.36377975 195.99618408 230.36427826 194.88342285 230.36479187 C192.59690514 230.36244836 190.310385 230.35270369 188.02392578 230.33618164 C184.51441497 230.31259687 181.00566359 230.31561778 177.49609375 230.32226562 C175.27864128 230.31668895 173.06119203 230.30957915 170.84375 230.30078125 C169.78853149 230.30169266 168.73331299 230.30260406 167.64611816 230.30354309 C166.67170776 230.29401108 165.69729736 230.28447906 164.69335938 230.2746582 C163.83335327 230.27005081 162.97334717 230.26544342 162.08728027 230.26069641 C160 230 160 230 158 228 C157.74121094 225.6015625 157.74121094 225.6015625 157.734375 222.625 C157.73179687 221.55765625 157.72921875 220.4903125 157.7265625 219.390625 C157.73429688 218.27171875 157.74203125 217.1528125 157.75 216 C157.74226562 214.88109375 157.73453125 213.7621875 157.7265625 212.609375 C157.72914063 211.54203125 157.73171875 210.4746875 157.734375 209.375 C157.73663086 208.39273438 157.73888672 207.41046875 157.74121094 206.3984375 C158 204 158 204 160 202 C161.32 202 162.64 202 164 202 C164.02283554 201.02821304 164.04567108 200.05642609 164.06919861 199.05519104 C164.28749211 189.77703829 164.50798588 180.49893992 164.73049068 171.22088718 C164.84474243 166.45400447 164.95828895 161.6871074 165.07006836 156.92016602 C165.17850453 152.29701853 165.28899574 147.67392385 165.40075874 143.05085564 C165.44250343 141.31035955 165.48357707 139.5698472 165.5238781 137.82931709 C165.85542015 123.54279599 166.42869413 109.28264675 167 95 C139.94 95 112.88 95 85 95 C85.33 103.58 85.66 112.16 86 121 C86.19277098 127.67966499 86.37577521 134.35865357 86.53515625 141.0390625 C86.57841133 142.79552591 86.62182638 144.55198538 86.66539001 146.30844116 C86.77709696 150.82900312 86.8867007 155.34961344 86.99578857 159.87023926 C87.10849257 164.52420259 87.223293 169.17811423 87.33789062 173.83203125 C87.5605874 182.8879728 87.78105116 191.94396711 88 201 C88.78375 201.268125 89.5675 201.53625 90.375 201.8125 C93 203 93 203 95 206 C95.16699219 208.32836914 95.16699219 208.32836914 95.046875 211.03515625 C95.00433594 212.00904297 94.96179688 212.98292969 94.91796875 213.98632812 C94.86253906 215.00146484 94.80710937 216.01660156 94.75 217.0625 C94.69005859 218.59100586 94.69005859 218.59100586 94.62890625 220.15039062 C94.25654943 227.74345057 94.25654943 227.74345057 92 230 C89.95741272 230.26069641 89.95741272 230.26069641 87.41430664 230.2746582 C86.46314468 230.28419022 85.51198273 230.29372223 84.53199768 230.30354309 C82.98668617 230.30217598 82.98668617 230.30217598 81.41015625 230.30078125 C80.35469101 230.30506638 79.29922577 230.3093515 78.21177673 230.31376648 C75.97655963 230.31951705 73.74132382 230.32000472 71.50610352 230.31567383 C68.07991695 230.31251605 64.6545952 230.33595706 61.22851562 230.36132812 C59.05989693 230.36360119 56.8912759 230.36430458 54.72265625 230.36328125 C53.69447281 230.372491 52.66628937 230.38170074 51.60694885 230.39118958 C50.65263474 230.38496078 49.69832062 230.37873199 48.71508789 230.37231445 C47.87506729 230.37294388 47.03504669 230.3735733 46.16957092 230.3742218 C43.46620505 229.90792755 42.598378 229.20673393 41 227 C40.56510673 224.1600594 40.30625192 221.53996966 40.1875 218.6875 C40.11112305 217.56698242 40.11112305 217.56698242 40.03320312 216.42382812 C39.79612837 211.84707982 40.11742855 208.27621901 42 204 C42.66 203.34 43.32 202.68 44 202 C45.32 202 46.64 202 48 202 C48.02283554 201.04296173 48.04567108 200.08592346 48.06919861 199.09988403 C48.28766285 189.95449163 48.50815452 180.8091499 48.73049068 171.66385078 C48.84465636 166.9653764 48.9581764 162.2668885 49.07006836 157.56835938 C49.56736749 136.70550775 50.09069401 115.84978824 51 95 C49.74405029 95.04793701 48.48810059 95.09587402 47.1940918 95.14526367 C46.07084 95.18688126 46.07084 95.18688126 44.92489624 95.2293396 C43.36971831 95.29056354 41.81509948 95.36642128 40.26098633 95.45043945 C36.2976484 95.52345947 34.39345884 95.25399219 30.98046875 93.05078125 C28.27806767 88.88791095 28.32852135 85.73096364 28.5 80.875 C28.49613281 79.65876953 28.49613281 79.65876953 28.4921875 78.41796875 C28.58972375 72.51702571 28.58972375 72.51702571 30.34179688 70.30908203 C33.10441783 68.12810831 35.62310965 67.87686549 39.01171875 67.90234375 C40.14770508 67.90717773 40.14770508 67.90717773 41.30664062 67.91210938 C42.48516602 67.92467773 42.48516602 67.92467773 43.6875 67.9375 C44.48478516 67.94201172 45.28207031 67.94652344 46.10351562 67.95117188 C48.06904257 67.9629415 50.03453085 67.98087652 52 68 C52 65.36 52 62.72 52 60 C51.195625 60.020625 50.39125 60.04125 49.5625 60.0625 C47 60 47 60 46 59 C45.92741054 56.81360547 45.91626217 54.62499611 45.9375 52.4375 C45.94652344 51.23996094 45.95554688 50.04242188 45.96484375 48.80859375 C45.97644531 47.88175781 45.98804688 46.95492187 46 46 C44.205625 46.0928125 44.205625 46.0928125 42.375 46.1875 C36.00145151 46.17625917 31.66674571 43.14821841 27 39 C26.34 38.01 25.68 37.02 25 36 C22.61508624 35.5788721 20.31732285 35.5611354 17.8984375 35.50390625 C9.05094381 33.96573012 3.59202909 28.12674761 -2.4375 21.875 C-3.25154297 21.05128906 -4.06558594 20.22757813 -4.90429688 19.37890625 C-11.82300246 12.32748154 -11.82300246 12.32748154 -12.375 8.1875 C-12 5 -12 5 -9.9375 2.125 C-6.39332112 -0.43887409 -4.17533583 -0.42476865 0 0 Z M90 46 C89.67 50.29 89.34 54.58 89 59 C87.35 59.33 85.7 59.66 84 60 C84 62.64 84 65.28 84 68 C92.58 68 101.16 68 110 68 C110 60.74 110 53.48 110 46 C103.4 46 96.8 46 90 46 Z M142 46 C142 53.26 142 60.52 142 68 C150.58 68 159.16 68 168 68 C168 65.36 168 62.72 168 60 C165.525 59.505 165.525 59.505 163 59 C162.505 52.565 162.505 52.565 162 46 C155.4 46 148.8 46 142 46 Z " fill="#F7473D" transform="translate(14,4)"/>
<path d="M0 0 C3.94280447 0.67358554 7.84180657 1.52587019 11.75 2.375 C22.51884068 4.60220616 33.04776534 6.14831105 44 7 C45.55121048 7.12257927 45.55121048 7.12257927 47.13375854 7.24763489 C70.89166375 9.05998345 94.58702767 9.34429638 118.40551758 9.31567383 C122.5703417 9.31106619 126.73487205 9.31789705 130.8996582 9.33618164 C153.72142796 9.43529845 176.43640233 9.1098661 199.21484375 7.609375 C200.17275 7.54700968 201.13065624 7.48464436 202.11758995 7.42038918 C217.42590043 6.39961532 232.41314582 4.71790861 247.30859375 0.90625 C251.67775942 -0.16639173 254.53920205 -0.51189485 259 0 C262.33377678 2.36142522 263.69652395 3.8619648 264.75 7.8125 C263.57868704 12.79058008 260.53663268 15.42298162 257 19 C255.96130652 20.09807648 254.92361842 21.19710449 253.88671875 22.296875 C252.7593648 23.4702434 251.63044877 24.64211292 250.5 25.8125 C249.70009644 26.65760132 249.70009644 26.65760132 248.8840332 27.51977539 C244.52399462 31.93958602 240.48798165 34.64408351 234.12890625 35.29296875 C233.28199219 35.25816406 232.43507812 35.22335938 231.5625 35.1875 C230.26505859 35.14689453 230.26505859 35.14689453 228.94140625 35.10546875 C228.30074219 35.07066406 227.66007813 35.03585938 227 35 C227 35.66 227 36.32 227 37 C226.34 37 225.68 37 225 37 C224.814375 37.5775 224.62875 38.155 224.4375 38.75 C221.98704927 42.58548809 218.0104348 43.9947826 214 46 C211.3276379 46.13415472 208.67749512 46.04318541 206 46 C206.01160156 46.92683594 206.02320313 47.85367188 206.03515625 48.80859375 C206.04417969 50.00613281 206.05320313 51.20367187 206.0625 52.4375 C206.07410156 53.63246094 206.08570313 54.82742187 206.09765625 56.05859375 C206 59 206 59 205 60 C202.40426476 60.01695563 199.83863082 59.9710781 197.24609375 59.87890625 C196.47064713 59.85529526 195.6952005 59.83168427 194.89625549 59.80735779 C192.40982565 59.7305411 189.92369331 59.646595 187.4375 59.5625 C185.75587413 59.5092973 184.07423356 59.4565568 182.39257812 59.40429688 C178.26152894 59.27490179 174.13073298 59.1391106 170 59 C170 61.97 170 64.94 170 68 C169.34 68 168.68 68 168 68 C168 65.36 168 62.72 168 60 C167.195625 60.020625 166.39125 60.04125 165.5625 60.0625 C163 60 163 60 162 59 C162 54.71 162 50.42 162 46 C138.24 46 114.48 46 90 46 C90 50.29 90 54.58 90 59 C89 60 89 60 86.4375 60.0625 C85.633125 60.041875 84.82875 60.02125 84 60 C84 59.34 84 58.68 84 58 C83.01 58.495 83.01 58.495 82 59 C79.38798083 59.16873365 76.79860507 59.28254876 74.18359375 59.3515625 C73.41193375 59.37471527 72.64027374 59.39786804 71.8452301 59.42172241 C70.2136997 59.46935517 68.58209781 59.51459009 66.95043945 59.55761719 C64.44390216 59.62482833 61.93784014 59.70253925 59.43164062 59.78125 C57.84897617 59.8261541 56.26629421 59.87044587 54.68359375 59.9140625 C53.92944687 59.93796051 53.17529999 59.96185852 52.39830017 59.98648071 C50.59939216 60.03019325 48.79932188 60.0205332 47 60 C46 59 46 59 45.90234375 56.05859375 C45.91394531 54.86363281 45.92554688 53.66867188 45.9375 52.4375 C45.94652344 51.23996094 45.95554688 50.04242188 45.96484375 48.80859375 C45.97644531 47.88175781 45.98804688 46.95492187 46 46 C44.205625 46.0928125 44.205625 46.0928125 42.375 46.1875 C36.00145151 46.17625917 31.66674571 43.14821841 27 39 C26.34 38.01 25.68 37.02 25 36 C22.61508624 35.5788721 20.31732285 35.5611354 17.8984375 35.50390625 C9.05094381 33.96573012 3.59202909 28.12674761 -2.4375 21.875 C-3.25154297 21.05128906 -4.06558594 20.22757813 -4.90429688 19.37890625 C-11.82300246 12.32748154 -11.82300246 12.32748154 -12.375 8.1875 C-12 5 -12 5 -9.9375 2.125 C-6.39332112 -0.43887409 -4.17533583 -0.42476865 0 0 Z " fill="#F7473C" transform="translate(14,4)"/>
<path d="M0 0 C3.94280447 0.67358554 7.84180657 1.52587019 11.75 2.375 C22.51884068 4.60220616 33.04776534 6.14831105 44 7 C45.55121048 7.12257927 45.55121048 7.12257927 47.13375854 7.24763489 C70.89166375 9.05998345 94.58702767 9.34429638 118.40551758 9.31567383 C122.5703417 9.31106619 126.73487205 9.31789705 130.8996582 9.33618164 C153.72142796 9.43529845 176.43640233 9.1098661 199.21484375 7.609375 C200.17275 7.54700968 201.13065624 7.48464436 202.11758995 7.42038918 C217.42590043 6.39961532 232.41314582 4.71790861 247.30859375 0.90625 C251.67775942 -0.16639173 254.53920205 -0.51189485 259 0 C262.33377678 2.36142522 263.69652395 3.8619648 264.75 7.8125 C263.57868704 12.79058008 260.53663268 15.42298162 257 19 C255.96130652 20.09807648 254.92361842 21.19710449 253.88671875 22.296875 C252.7593648 23.4702434 251.63044877 24.64211292 250.5 25.8125 C249.70009644 26.65760132 249.70009644 26.65760132 248.8840332 27.51977539 C244.60640958 31.85604123 240.58219081 34.60432355 234.34765625 35.29296875 C233.59355469 35.25816406 232.83945313 35.22335938 232.0625 35.1875 C231.29035156 35.16042969 230.51820313 35.13335937 229.72265625 35.10546875 C229.15417969 35.07066406 228.58570313 35.03585938 228 35 C229.15173355 32.53199953 230.04783565 30.95216435 232 29 C232.33 27.35 232.66 25.7 233 24 C162.38 24 91.76 24 19 24 C20.66678162 29.53234759 20.66678162 29.53234759 24 33 C24 33.66 24 34.32 24 35 C22.66867968 35.11094336 21.3344432 35.18688444 20 35.25 C19.2575 35.29640625 18.515 35.3428125 17.75 35.390625 C8.92982706 34.13775952 3.45891192 27.9887244 -2.4375 21.875 C-3.25154297 21.05128906 -4.06558594 20.22757813 -4.90429688 19.37890625 C-11.82300246 12.32748154 -11.82300246 12.32748154 -12.375 8.1875 C-12 5 -12 5 -9.9375 2.125 C-6.39332112 -0.43887409 -4.17533583 -0.42476865 0 0 Z " fill="#2E3746" transform="translate(14,4)"/>
<path d="M0 0 C0.66209473 -0.00095673 1.32418945 -0.00191345 2.00634766 -0.00289917 C3.40852961 -0.00358076 4.8107147 -0.00172792 6.21289062 0.00244141 C8.36595713 0.00779004 10.51881502 0.0024958 12.671875 -0.00390625 C14.03125046 -0.00324546 15.3906258 -0.00196429 16.75 0 C18.61785156 0.00169189 18.61785156 0.00169189 20.5234375 0.00341797 C23.375 0.1328125 23.375 0.1328125 24.375 1.1328125 C24.46200342 2.76754132 24.48201063 4.40595305 24.47265625 6.04296875 C24.47015869 6.9337915 24.46766113 7.82461426 24.46508789 8.74243164 C24.45598389 9.88188232 24.44687988 11.02133301 24.4375 12.1953125 C24.416875 15.8046875 24.39625 19.4140625 24.375 23.1328125 C33.285 23.1328125 42.195 23.1328125 51.375 23.1328125 C51.375 31.3828125 51.375 39.6328125 51.375 48.1328125 C8.805 48.6278125 8.805 48.6278125 -34.625 49.1328125 C-34.625 25.1328125 -34.625 25.1328125 -33.625 23.1328125 C-25.045 23.1328125 -16.465 23.1328125 -7.625 23.1328125 C-7.6645866 15.93758468 -7.6645866 15.93758468 -7.71508789 8.74243164 C-7.71758545 7.85160889 -7.72008301 6.96078613 -7.72265625 6.04296875 C-7.73051147 4.66830444 -7.73051147 4.66830444 -7.73852539 3.26586914 C-7.49351902 -1.33761624 -3.82002281 0.00346017 0 0 Z " fill="#DF3430" transform="translate(131.625,48.8671875)"/>
<path d="M0 0 C6.875 1.875 6.875 1.875 8 3 C8.25252843 6.78495555 8.18522639 10.58261696 8.1875 14.375 C8.19974609 15.44234375 8.21199219 16.5096875 8.22460938 17.609375 C8.22654297 18.63289063 8.22847656 19.65640625 8.23046875 20.7109375 C8.23457764 21.65243652 8.23868652 22.59393555 8.24291992 23.56396484 C8 26 8 26 6 29 C3.91271973 29.3742218 3.91271973 29.3742218 1.30664062 29.37231445 C0.33223022 29.37854324 -0.64218018 29.38477203 -1.64611816 29.39118958 C-2.70133667 29.38197983 -3.75655518 29.37277008 -4.84375 29.36328125 C-5.92378296 29.36377975 -7.00381592 29.36427826 -8.11657715 29.36479187 C-10.40309486 29.36244836 -12.689615 29.35270369 -14.97607422 29.33618164 C-18.48558503 29.31259687 -21.99433641 29.31561778 -25.50390625 29.32226562 C-27.72135872 29.31668895 -29.93880797 29.30957915 -32.15625 29.30078125 C-33.21146851 29.30169266 -34.26668701 29.30260406 -35.35388184 29.30354309 C-36.32829224 29.29401108 -37.30270264 29.28447906 -38.30664062 29.2746582 C-39.16664673 29.27005081 -40.02665283 29.26544342 -40.91271973 29.26069641 C-43 29 -43 29 -45 27 C-45.25878906 24.6015625 -45.25878906 24.6015625 -45.265625 21.625 C-45.26820313 20.55765625 -45.27078125 19.4903125 -45.2734375 18.390625 C-45.26183594 16.71226562 -45.26183594 16.71226562 -45.25 15 C-45.25773438 13.88109375 -45.26546875 12.7621875 -45.2734375 11.609375 C-45.27085937 10.54203125 -45.26828125 9.4746875 -45.265625 8.375 C-45.26336914 7.39273438 -45.26111328 6.41046875 -45.25878906 5.3984375 C-45 3 -45 3 -43 1 C-41.12704468 0.79745483 -41.12704468 0.79745483 -38.82568359 0.86474609 C-37.96494232 0.88491791 -37.10420105 0.90508972 -36.21737671 0.9258728 C-35.28712677 0.95806915 -34.35687683 0.9902655 -33.3984375 1.0234375 C-32.44683746 1.04846344 -31.49523743 1.07348938 -30.51480103 1.09927368 C-27.46784569 1.181612 -24.42152524 1.27814792 -21.375 1.375 C-19.31252615 1.43322542 -17.25002605 1.49052899 -15.1875 1.546875 C-10.12463317 1.68721144 -5.06229105 1.84028437 0 2 C0 1.34 0 0.68 0 0 Z " fill="#303745" transform="translate(217,205)"/>
<path d="M0 0 C1.3432987 0.06908781 2.69009357 0.07627102 4.03491211 0.05004883 C5.28146828 0.03056938 5.28146828 0.03056938 6.5532074 0.01069641 C7.45217239 -0.00701309 8.35113739 -0.0247226 9.27734375 -0.04296875 C11.17121352 -0.06535467 13.06509447 -0.08681033 14.95898438 -0.10742188 C17.95269697 -0.14456349 20.94584532 -0.18766494 23.93920898 -0.24682617 C26.82283827 -0.30119843 29.70583086 -0.33038026 32.58984375 -0.35546875 C33.48678452 -0.37925095 34.38372528 -0.40303314 35.30784607 -0.42753601 C41.44582038 -0.45350842 41.44582038 -0.45350842 44.07910156 1.70141602 C45.15836366 4.39527939 45.29091383 6.23617196 45.14453125 9.1328125 C45.07588867 10.58880859 45.07588867 10.58880859 45.00585938 12.07421875 C44.94205078 13.08097656 44.87824219 14.08773437 44.8125 15.125 C44.74579102 16.64673828 44.74579102 16.64673828 44.67773438 18.19921875 C44.27170567 25.72829433 44.27170567 25.72829433 42 28 C39.95741272 28.26069641 39.95741272 28.26069641 37.41430664 28.2746582 C35.98756371 28.28895622 35.98756371 28.28895622 34.53199768 28.30354309 C32.98668617 28.30217598 32.98668617 28.30217598 31.41015625 28.30078125 C30.35469101 28.30506638 29.29922577 28.3093515 28.21177673 28.31376648 C25.97655963 28.31951705 23.74132382 28.32000472 21.50610352 28.31567383 C18.07991695 28.31251605 14.6545952 28.33595706 11.22851562 28.36132812 C9.05989693 28.36360119 6.8912759 28.36430458 4.72265625 28.36328125 C3.18038109 28.37709587 3.18038109 28.37709587 1.60694885 28.39118958 C0.65263474 28.38496078 -0.30167938 28.37873199 -1.28491211 28.37231445 C-2.12493271 28.37294388 -2.96495331 28.3735733 -3.83042908 28.3742218 C-6.53379495 27.90792755 -7.401622 27.20673393 -9 25 C-9.43489327 22.1600594 -9.69374808 19.53996966 -9.8125 16.6875 C-9.86341797 15.94048828 -9.91433594 15.19347656 -9.96679688 14.42382812 C-10.20387163 9.84707982 -9.88257145 6.27621901 -8 2 C-5.44123378 -0.55876622 -3.37797483 -1.68898741 0 0 Z " fill="#303847" transform="translate(64,206)"/>
<path d="M0 0 C0.66209473 -0.00095673 1.32418945 -0.00191345 2.00634766 -0.00289917 C3.40852961 -0.00358076 4.8107147 -0.00172792 6.21289062 0.00244141 C8.36595713 0.00779004 10.51881502 0.0024958 12.671875 -0.00390625 C14.03125046 -0.00324546 15.3906258 -0.00196429 16.75 0 C18.61785156 0.00169189 18.61785156 0.00169189 20.5234375 0.00341797 C23.375 0.1328125 23.375 0.1328125 24.375 1.1328125 C24.46213831 2.84053608 24.48200007 4.55179899 24.47265625 6.26171875 C24.47015869 7.19314697 24.46766113 8.1245752 24.46508789 9.08422852 C24.45598389 10.27588623 24.44687988 11.46754395 24.4375 12.6953125 C24.416875 16.4696875 24.39625 20.2440625 24.375 24.1328125 C13.815 24.1328125 3.255 24.1328125 -7.625 24.1328125 C-7.645625 20.3584375 -7.66625 16.5840625 -7.6875 12.6953125 C-7.696604 11.50365479 -7.70570801 10.31199707 -7.71508789 9.08422852 C-7.71758545 8.15280029 -7.72008301 7.22137207 -7.72265625 6.26171875 C-7.72789307 5.30338135 -7.73312988 4.34504395 -7.73852539 3.35766602 C-7.49901205 -1.33628041 -3.93352385 0.00356297 0 0 Z " fill="#2E3846" transform="translate(131.625,48.8671875)"/>
<path d="M0 0 C70.62 0 141.24 0 214 0 C214 5.61189802 214 5.61189802 211.5625 8.1875 C209.03259873 10.70829495 209.03259873 10.70829495 208 13 C207.34 13 206.68 13 206 13 C205.34 14.32 204.68 15.64 204 17 C203.34 17 202.68 17 202 17 C202 15.35 202 13.7 202 12 C203.32 12 204.64 12 206 12 C206 11.01 206 10.02 206 9 C207.65002828 7.64613064 209.3174387 6.31321858 211 5 C211.33 4.01 211.66 3.02 212 2 C188.78045834 2.1076808 165.56094669 2.22051713 142.34145927 2.33933926 C131.55805333 2.39440401 120.77464409 2.44783914 109.99121094 2.49731445 C100.582426 2.54048703 91.1736628 2.58684296 81.76491177 2.63687855 C76.79212295 2.66321638 71.81933768 2.6880574 66.84652328 2.70907402 C47.53975857 2.79160004 28.28117957 2.89958388 9 4 C6 4 6 4 4 3 C4.74378388 5.97670763 4.74378388 5.97670763 6.5625 7.5625 C7.036875 8.036875 7.51125 8.51125 8 9 C8 9.66 8 10.32 8 11 C8.66 11 9.32 11 10 11 C10.66 12.98 11.32 14.96 12 17 C8.35469608 15.52739378 6.63148808 13.57140363 4.3125 10.4375 C3.71050781 9.63183594 3.10851563 8.82617188 2.48828125 7.99609375 C1.75158203 7.00802734 1.75158203 7.00802734 1 6 C0.67 5.67 0.34 5.34 0 5 C0 3.35 0 1.7 0 0 Z " fill="#C04942" transform="translate(33,28)"/>
<path d="M0 0 C0.82886719 -0.020625 1.65773437 -0.04125 2.51171875 -0.0625 C3.30964844 -0.06765625 4.10757813 -0.0728125 4.9296875 -0.078125 C5.66171387 -0.0874707 6.39374023 -0.09681641 7.14794922 -0.10644531 C9.74126667 0.3611076 10.59509176 1.12211484 12.125 3.25 C12.49731445 5.30297852 12.49731445 5.30297852 12.48828125 7.62890625 C12.48763672 8.46744141 12.48699219 9.30597656 12.48632812 10.16992188 C12.47021484 11.04197266 12.45410156 11.91402344 12.4375 12.8125 C12.44233398 14.12637695 12.44233398 14.12637695 12.44726562 15.46679688 C12.39208681 21.98291319 12.39208681 21.98291319 10.125 24.25 C8.06201172 24.47705078 8.06201172 24.47705078 5.5546875 24.4453125 C4.65878906 24.43886719 3.76289063 24.43242188 2.83984375 24.42578125 C1.90269531 24.40902344 0.96554688 24.39226562 0 24.375 C-0.94488281 24.36597656 -1.88976562 24.35695313 -2.86328125 24.34765625 C-5.20077292 24.32404522 -7.53776123 24.29111516 -9.875 24.25 C-9.90387236 20.43751574 -9.92175492 16.6250593 -9.9375 12.8125 C-9.94587891 11.72388672 -9.95425781 10.63527344 -9.96289062 9.51367188 C-9.96611328 8.47919922 -9.96933594 7.44472656 -9.97265625 6.37890625 C-9.97789307 5.42056885 -9.98312988 4.46223145 -9.98852539 3.47485352 C-9.72198175 -1.74882862 -4.03451414 0.02486603 0 0 Z " fill="#E13430" transform="translate(222.875,72.75)"/>
<path d="M0 0 C0.804375 -0.00128906 1.60875 -0.00257812 2.4375 -0.00390625 C3.283125 -0.00003906 4.12875 0.00382812 5 0.0078125 C6.2684375 0.00201172 6.2684375 0.00201172 7.5625 -0.00390625 C8.366875 -0.00261719 9.17125 -0.00132813 10 0 C10.7425 0.00112793 11.485 0.00225586 12.25 0.00341797 C14 0.1328125 14 0.1328125 15 1.1328125 C15.08713831 2.84053608 15.10700007 4.55179899 15.09765625 6.26171875 C15.09443359 7.29619141 15.09121094 8.33066406 15.08789062 9.39648438 C15.07951172 10.48509766 15.07113281 11.57371094 15.0625 12.6953125 C15.05798828 13.78779297 15.05347656 14.88027344 15.04882812 16.00585938 C15.03699826 18.71489745 15.02051543 21.42382849 15 24.1328125 C11.70840684 24.19071603 8.41694397 24.22637511 5.125 24.2578125 C3.71927734 24.28294922 3.71927734 24.28294922 2.28515625 24.30859375 C0.94130859 24.31826172 0.94130859 24.31826172 -0.4296875 24.328125 C-1.25710449 24.33859863 -2.08452148 24.34907227 -2.93701172 24.35986328 C-5 24.1328125 -5 24.1328125 -7 22.1328125 C-7.265625 18.8671875 -7.265625 18.8671875 -7.25 14.8828125 C-7.25515625 13.57828125 -7.2603125 12.27375 -7.265625 10.9296875 C-6.50168762 0.0098767 -6.50168762 0.0098767 0 0 Z " fill="#E23431" transform="translate(52,72.8671875)"/>
<path d="M0 0 C2.43785961 3.65678942 2.21980015 5.30426959 2.15112305 9.65527344 C2.14326782 10.32721741 2.1354126 10.99916138 2.12731934 11.69146729 C2.09873001 13.91437047 2.05545642 16.13672224 2.01171875 18.359375 C1.98807287 19.90772373 1.96520091 21.45608445 1.94306946 23.00445557 C1.89451805 26.25278316 1.839167 29.50089871 1.77856445 32.74902344 C1.70130369 36.89920388 1.63678733 41.049453 1.57690716 45.19991684 C1.52999906 48.39998735 1.4782809 51.59996523 1.42493629 54.79993439 C1.3996289 56.32923008 1.37532183 57.85854267 1.3520565 59.38787079 C1.3182721 61.53440581 1.27851256 63.68074944 1.23706055 65.82714844 C1.21548386 67.04609802 1.19390717 68.26504761 1.17167664 69.52093506 C0.99844799 73.03145187 0.49706612 76.52053715 0 80 C11.55 80 23.1 80 35 80 C35 54.26 35 28.52 35 2 C35.33 2 35.66 2 36 2 C36.28420118 12.13523223 36.56277958 22.27060174 36.83411503 32.40618706 C36.96027541 37.1121818 37.08839615 41.81810637 37.22094727 46.52392578 C37.34871668 51.06251806 37.47140163 55.60122152 37.59051323 60.14004898 C37.63693374 61.87450258 37.68520813 63.60890756 37.73533821 65.3432579 C37.80506324 67.76633499 37.8682847 70.18949883 37.92993164 72.61279297 C37.95222839 73.33496002 37.97452515 74.05712708 37.99749756 74.80117798 C38.11405216 79.77189568 38.11405216 79.77189568 37 82 C31.76726669 82.04935824 26.53466824 82.08569949 21.30175781 82.10986328 C19.52080933 82.11993431 17.73987743 82.13359185 15.95898438 82.15087891 C13.40230217 82.17507913 10.84583815 82.18647184 8.2890625 82.1953125 C7.49005524 82.20563507 6.69104797 82.21595764 5.86782837 82.22659302 C3.9104278 82.22699226 1.95356923 82.12241069 0 82 C-2 80 -2 80 -2.1645813 76.72238159 C-2.13476614 75.29106186 -2.09345942 73.85995597 -2.04345703 72.42919922 C-2.02424194 71.64862152 -2.00502686 70.86804382 -1.98522949 70.06381226 C-1.91912996 67.47707701 -1.83851394 64.89100503 -1.7578125 62.3046875 C-1.70922175 60.51395016 -1.66153405 58.72318811 -1.61471558 56.93240356 C-1.48891685 52.21388649 -1.35081784 47.49580572 -1.21020508 42.77770996 C-1.06894309 37.96529041 -0.9392467 33.15256095 -0.80859375 28.33984375 C-0.55041863 18.8928886 -0.27925565 9.44635384 0 0 Z " fill="#D5544B" transform="translate(64,125)"/>
<path d="M0 0 C1.3432987 0.06908781 2.69009357 0.07627102 4.03491211 0.05004883 C5.28146828 0.03056938 5.28146828 0.03056938 6.5532074 0.01069641 C7.45217239 -0.00701309 8.35113739 -0.0247226 9.27734375 -0.04296875 C11.17121352 -0.06535467 13.06509447 -0.08681033 14.95898438 -0.10742188 C17.95269697 -0.14456349 20.94584532 -0.18766494 23.93920898 -0.24682617 C26.82283827 -0.30119843 29.70583086 -0.33038026 32.58984375 -0.35546875 C33.48678452 -0.37925095 34.38372528 -0.40303314 35.30784607 -0.42753601 C41.44582038 -0.45350842 41.44582038 -0.45350842 44.07910156 1.70141602 C45.15836366 4.39527939 45.29091383 6.23617196 45.14453125 9.1328125 C45.07588867 10.58880859 45.07588867 10.58880859 45.00585938 12.07421875 C44.94205078 13.08097656 44.87824219 14.08773437 44.8125 15.125 C44.74579102 16.64673828 44.74579102 16.64673828 44.67773438 18.19921875 C44.27170567 25.72829433 44.27170567 25.72829433 42 28 C39.95741272 28.26069641 39.95741272 28.26069641 37.41430664 28.2746582 C35.98756371 28.28895622 35.98756371 28.28895622 34.53199768 28.30354309 C32.98668617 28.30217598 32.98668617 28.30217598 31.41015625 28.30078125 C30.35469101 28.30506638 29.29922577 28.3093515 28.21177673 28.31376648 C25.97655963 28.31951705 23.74132382 28.32000472 21.50610352 28.31567383 C18.07991695 28.31251605 14.6545952 28.33595706 11.22851562 28.36132812 C9.05989693 28.36360119 6.8912759 28.36430458 4.72265625 28.36328125 C3.18038109 28.37709587 3.18038109 28.37709587 1.60694885 28.39118958 C0.65263474 28.38496078 -0.30167938 28.37873199 -1.28491211 28.37231445 C-2.12493271 28.37294388 -2.96495331 28.3735733 -3.83042908 28.3742218 C-6.51592415 27.91101002 -7.41065627 27.18866295 -9 25 C-9.1875 21.8125 -9.1875 21.8125 -9 19 C-8.01 19 -7.02 19 -6 19 C-5.67 20.98 -5.34 22.96 -5 25 C10.18 25 25.36 25 41 25 C41 17.74 41 10.48 41 3 C25.49 2.67 9.98 2.34 -6 2 C-6 7.28 -6 12.56 -6 18 C-6.33 18 -6.66 18 -7 18 C-7.22119939 15.37549914 -7.42746669 12.75129514 -7.625 10.125 C-7.68945312 9.37863281 -7.75390625 8.63226563 -7.8203125 7.86328125 C-7.96087365 5.9129953 -7.98759849 3.95530533 -8 2 C-5.44123378 -0.55876622 -3.37797483 -1.68898741 0 0 Z " fill="#1B2027" transform="translate(64,206)"/>
<path d="M0 0 C0.78186676 0.00359528 1.56373352 0.00719055 2.36929321 0.01089478 C3.18873917 0.01074875 4.00818512 0.01060272 4.85246277 0.01045227 C7.57416385 0.01115164 10.29579737 0.01894515 13.01748657 0.02676392 C14.89935773 0.02862801 16.78122938 0.03005195 18.6631012 0.03105164 C23.62631561 0.0348775 28.58950096 0.04470836 33.55270386 0.05575562 C38.61322639 0.06596827 43.67375359 0.07054894 48.73428345 0.07559204 C58.67114726 0.08633057 68.60798183 0.10392792 78.54483032 0.12442017 C78.54483032 9.03442017 78.54483032 17.94442017 78.54483032 27.12442017 C78.21483032 27.12442017 77.88483032 27.12442017 77.54483032 27.12442017 C77.54483032 18.87442017 77.54483032 10.62442017 77.54483032 2.12442017 C50.48483032 2.12442017 23.42483032 2.12442017 -4.45516968 2.12442017 C-4.45516968 9.71442017 -4.45516968 17.30442017 -4.45516968 25.12442017 C-4.78516968 25.12442017 -5.11516968 25.12442017 -5.45516968 25.12442017 C-5.65102321 21.14561789 -5.83545638 17.16636861 -6.01766968 13.18692017 C-6.0737439 12.05061157 -6.12981812 10.91430298 -6.18759155 9.74356079 C-6.2359314 8.66397095 -6.28427124 7.5843811 -6.33407593 6.47207642 C-6.38120728 5.47184448 -6.42833862 4.47161255 -6.47689819 3.44107056 C-6.43488399 -1.03839841 -3.82048129 0.00741619 0 0 Z " fill="#C2514A" transform="translate(103.45516967773438,96.87557983398438)"/>
<path d="M0 0 C3.875 1.75 3.875 1.75 5 4 C5.31340722 6.9507885 5.32395224 9.90958911 5.375 12.875 C5.41238281 13.69097656 5.44976562 14.50695312 5.48828125 15.34765625 C5.54679037 19.33277744 5.51656868 21.33101799 3.02734375 24.5546875 C-1.05092444 26.50173167 -4.36074866 26.44404113 -8.8125 26.25 C-9.99489258 26.22292969 -9.99489258 26.22292969 -11.20117188 26.1953125 C-13.13464261 26.14844048 -15.06748285 26.0767041 -17 26 C-16.87802912 29.95954349 -16.75440301 33.91903214 -16.6293335 37.878479 C-16.58479352 39.29232833 -16.54056316 40.70618744 -16.49664307 42.12005615 C-16.23699053 50.45397268 -15.92841254 58.7811146 -15.52099609 67.109375 C-15.08190914 76.17894367 -14.85304205 84.96550048 -16 94 C-16.33 94 -16.66 94 -17 94 C-19.53384827 70.69668267 -19.20484598 47.40601627 -19 24 C-18.39937744 23.97494385 -17.79875488 23.9498877 -17.17993164 23.92407227 C-14.47388563 23.8084472 -11.76821717 23.68557064 -9.0625 23.5625 C-8.11697266 23.52318359 -7.17144531 23.48386719 -6.19726562 23.44335938 C-5.29814453 23.40146484 -4.39902344 23.35957031 -3.47265625 23.31640625 C-2.64000244 23.27974854 -1.80734863 23.24309082 -0.94946289 23.20532227 C1.00338858 23.20632897 1.00338858 23.20632897 2 22 C2.25017242 18.88272557 2.18522148 15.7511343 2.1875 12.625 C2.20586914 11.31015625 2.20586914 11.31015625 2.22460938 9.96875 C2.22654297 9.12570313 2.22847656 8.28265625 2.23046875 7.4140625 C2.23457764 6.6401416 2.23868652 5.8662207 2.24291992 5.06884766 C2.12250101 2.69204342 2.12250101 2.69204342 0 0 Z " fill="#C0524F" transform="translate(232,73)"/>
<path d="M0 0 C0.78375 0.04125 1.5675 0.0825 2.375 0.125 C2.375 0.785 2.375 1.445 2.375 2.125 C1.055 2.455 -0.265 2.785 -1.625 3.125 C-1.625 10.385 -1.625 17.645 -1.625 25.125 C1.74460938 25.10179687 5.11421875 25.07859375 8.5859375 25.0546875 C11.83918887 25.03910278 15.09243614 25.02695131 18.34570312 25.01513672 C20.61167249 25.00506141 22.87762881 24.99140082 25.14355469 24.97412109 C28.39521501 24.94993989 31.64670387 24.93853237 34.8984375 24.9296875 C36.42505508 24.91420364 36.42505508 24.91420364 37.98251343 24.89840698 C38.92333771 24.89825592 39.86416199 24.89810486 40.83349609 24.89794922 C41.66400482 24.893508 42.49451355 24.88906677 43.35018921 24.88449097 C45.375 25.125 45.375 25.125 47.375 27.125 C45.76400355 28.73599645 44.02308736 28.26041431 41.79516602 28.27026367 C40.33343712 28.27983345 40.33343712 28.27983345 38.84217834 28.28959656 C37.25160866 28.29126579 37.25160866 28.29126579 35.62890625 28.29296875 C34.54745834 28.29629715 33.46601044 28.29962555 32.35179138 28.30305481 C30.05932034 28.30812877 27.76684188 28.31046299 25.47436523 28.31030273 C21.95609433 28.31248845 18.43813719 28.33063728 14.91992188 28.34960938 C12.69791775 28.35254328 10.47591212 28.35452809 8.25390625 28.35546875 C7.19555069 28.36265427 6.13719513 28.36983978 5.04676819 28.37724304 C3.58031105 28.3726281 3.58031105 28.3726281 2.08422852 28.36791992 C0.78969505 28.37005745 0.78969505 28.37005745 -0.5309906 28.37223816 C-2.625 28.125 -2.625 28.125 -4.625 26.125 C-4.88378906 23.7265625 -4.88378906 23.7265625 -4.890625 20.75 C-4.89320313 19.68265625 -4.89578125 18.6153125 -4.8984375 17.515625 C-4.88683594 15.83726562 -4.88683594 15.83726562 -4.875 14.125 C-4.88273438 13.00609375 -4.89046875 11.8871875 -4.8984375 10.734375 C-4.89585937 9.66703125 -4.89328125 8.5996875 -4.890625 7.5 C-4.88836914 6.51773438 -4.88611328 5.53546875 -4.88378906 4.5234375 C-4.50307228 0.99498313 -3.52249566 0.16773789 0 0 Z " fill="#191D23" transform="translate(176.625,205.875)"/>
<path d="M0 0 C0.33 0 0.66 0 1 0 C1.28420118 10.13523223 1.56277958 20.27060174 1.83411503 30.40618706 C1.96027541 35.1121818 2.08839615 39.81810637 2.22094727 44.52392578 C2.34871668 49.06251806 2.47140163 53.60122152 2.59051323 58.14004898 C2.63693374 59.87450258 2.68520813 61.60890756 2.73533821 63.3432579 C2.80506324 65.76633499 2.8682847 68.18949883 2.92993164 70.61279297 C2.95222839 71.33496002 2.97452515 72.05712708 2.99749756 72.80117798 C3.11405216 77.77189568 3.11405216 77.77189568 2 80 C-10.21 80 -22.42 80 -35 80 C-35 79.67 -35 79.34 -35 79 C-17.675 78.505 -17.675 78.505 0 78 C0 52.26 0 26.52 0 0 Z " fill="#C04F48" transform="translate(99,127)"/>
<path d="M0 0 C9.9 0 19.8 0 30 0 C30 1.65 30 3.3 30 5 C20.43 5 10.86 5 1 5 C0.67 3.35 0.34 1.7 0 0 Z " fill="#E4372F" transform="translate(66,63)"/>
<path d="M0 0 C9.9 0 19.8 0 30 0 C29.67 1.65 29.34 3.3 29 5 C19.43 5 9.86 5 0 5 C0 3.35 0 1.7 0 0 Z " fill="#E1352B" transform="translate(184,63)"/>
<path d="M0 0 C4.25414623 -0.02465622 8.50825498 -0.04283899 12.76245117 -0.05493164 C14.21070073 -0.05997101 15.65894517 -0.06680253 17.10717773 -0.07543945 C19.18474588 -0.08752247 21.26224697 -0.09323211 23.33984375 -0.09765625 C24.59144287 -0.10289307 25.84304199 -0.10812988 27.13256836 -0.11352539 C30 0 30 0 31 1 C31.08713831 2.70772358 31.10700007 4.41898649 31.09765625 6.12890625 C31.09515869 7.06033447 31.09266113 7.9917627 31.09008789 8.95141602 C31.08098389 10.14307373 31.07187988 11.33473145 31.0625 12.5625 C31.041875 16.336875 31.02125 20.11125 31 24 C20.44 24 9.88 24 -1 24 C-1 23.67 -1 23.34 -1 23 C8.9 23 18.8 23 29 23 C29 16.07 29 9.14 29 2 C19.43 2 9.86 2 0 2 C0 1.34 0 0.68 0 0 Z " fill="#3A262F" transform="translate(125,49)"/>
<path d="M0 0 C0.33 0 0.66 0 1 0 C1 10.23 1 20.46 1 31 C12.88 31 24.76 31 37 31 C37 28.36 37 25.72 37 23 C37.66 22.67 38.32 22.34 39 22 C39.0270043 23.45823212 39.04639787 24.91660675 39.0625 26.375 C39.07410156 27.18710938 39.08570313 27.99921875 39.09765625 28.8359375 C39 31 39 31 38 33 C32.60653012 33.02464849 27.21309275 33.04283531 21.81958008 33.05493164 C19.98331125 33.05997231 18.14704646 33.06680477 16.31079102 33.07543945 C13.67723599 33.08751672 11.04373384 33.09323081 8.41015625 33.09765625 C7.17109276 33.10539818 7.17109276 33.10539818 5.90699768 33.11329651 C3.93763632 33.11349205 1.96838386 33.06204152 0 33 C-1 32 -1 32 -1.02172852 28.94897461 C-0.97940657 27.59992148 -0.93138482 26.25103997 -0.87890625 24.90234375 C-0.85529526 24.19348526 -0.83168427 23.48462677 -0.80735779 22.75428772 C-0.73055354 20.48182979 -0.64660225 18.20969843 -0.5625 15.9375 C-0.50929604 14.40040681 -0.45655554 12.8632975 -0.40429688 11.32617188 C-0.27491595 7.55057297 -0.1391231 3.77525197 0 0 Z " fill="#BF5251" transform="translate(179,174)"/>
<path d="M0 0 C17.82 0 35.64 0 54 0 C53.67 4.95 53.34 9.9 53 15 C54.32 15 55.64 15 57 15 C57.33 14.34 57.66 13.68 58 13 C59.20272819 15.40545638 59.10071472 16.94996953 59.0625 19.625 C59.05347656 20.44226563 59.04445312 21.25953125 59.03515625 22.1015625 C59.02355469 22.72804688 59.01195312 23.35453125 59 24 C58.34 24 57.68 24 57 24 C57 21.36 57 18.72 57 16 C56.195625 16.020625 55.39125 16.04125 54.5625 16.0625 C52 16 52 16 51 15 C50.92741054 12.81360547 50.91626217 10.62499611 50.9375 8.4375 C50.94652344 7.23996094 50.95554688 6.04242188 50.96484375 4.80859375 C50.97644531 3.88175781 50.98804688 2.95492187 51 2 C49.83210938 2.01160156 48.66421875 2.02320313 47.4609375 2.03515625 C31.62356552 2.13794418 15.82304339 1.60004683 0 1 C0 0.67 0 0.34 0 0 Z " fill="#D4524B" transform="translate(125,48)"/>
<path d="M0 0 C6.875 1.875 6.875 1.875 8 3 C8.08713831 4.70772358 8.10700007 6.41898649 8.09765625 8.12890625 C8.09443359 9.16337891 8.09121094 10.19785156 8.08789062 11.26367188 C8.07532227 12.8965918 8.07532227 12.8965918 8.0625 14.5625 C8.05798828 15.65498047 8.05347656 16.74746094 8.04882812 17.87304688 C8.03699826 20.58208495 8.02051543 23.29101599 8 26 C6.68 26 5.36 26 4 26 C4 18.74 4 11.48 4 4 C-9.86 3.67 -23.72 3.34 -38 3 C-38 2.67 -38 2.34 -38 2 C-25.46 2 -12.92 2 0 2 C0 1.34 0 0.68 0 0 Z " fill="#30242A" transform="translate(217,205)"/>
<path d="M0 0 C0.66 0.33 1.32 0.66 2 1 C1.67386719 1.82886719 1.34773438 2.65773438 1.01171875 3.51171875 C-0.12645581 7.43600402 -0.23153278 10.73346316 -0.1875 14.8125 C-0.18685547 15.49248047 -0.18621094 16.17246094 -0.18554688 16.87304688 C-0.43591117 20.22142954 -0.43591117 20.22142954 1 23 C2.41327947 23.15620555 3.8335459 23.25056173 5.25390625 23.31640625 C6.53491211 23.37924805 6.53491211 23.37924805 7.84179688 23.44335938 C8.73962891 23.48267578 9.63746094 23.52199219 10.5625 23.5625 C11.91504883 23.62727539 11.91504883 23.62727539 13.29492188 23.69335938 C15.52978485 23.79978142 17.76476308 23.90179988 20 24 C21.38489368 28.95484183 20.89120615 33.74589148 20.5625 38.8125 C20.51029297 39.69615234 20.45808594 40.57980469 20.40429688 41.49023438 C20.27525381 43.66050408 20.13840044 45.83030693 20 48 C19.67 48 19.34 48 19 48 C19 40.74 19 33.48 19 26 C13.62918446 26.19683876 13.62918446 26.19683876 8.26098633 26.45043945 C4.2976484 26.52345947 2.39345884 26.25399219 -1.01953125 24.05078125 C-3.72193233 19.88791095 -3.67147865 16.73096364 -3.5 11.875 C-3.50257812 11.06417969 -3.50515625 10.25335938 -3.5078125 9.41796875 C-3.40949074 3.46950231 -3.40949074 3.46950231 -1.47070312 1.24658203 C-0.98537109 0.83520996 -0.50003906 0.42383789 0 0 Z " fill="#C2524E" transform="translate(46,73)"/>
<path d="M0 0 C0.99 0.495 0.99 0.495 2 1 C1.99476318 1.89831543 1.98952637 2.79663086 1.98413086 3.72216797 C1.96710275 7.05062499 1.95455663 10.37903581 1.94506836 13.70751953 C1.94003526 15.1489332 1.93320827 16.59034176 1.92456055 18.03173828 C1.91245017 20.10190085 1.90676153 22.17199601 1.90234375 24.2421875 C1.89710693 25.4885498 1.89187012 26.73491211 1.88647461 28.01904297 C1.79183413 30.92771106 1.79183413 30.92771106 3 33 C3.37389683 36.75919008 3.47377964 40.53849219 3.625 44.3125 C3.67003662 45.39724609 3.71507324 46.48199219 3.76147461 47.59960938 C4.033297 55.15412445 3.95352934 62.48912278 3 70 C2.67 70 2.34 70 2 70 C-0.53384827 46.69668267 -0.20484598 23.40601627 0 0 Z " fill="#DF564C" transform="translate(213,97)"/>
<path d="M0 0 C5.4963853 0.47147323 10.92825815 1.11958576 16.375 2 C22.56730924 2.98664618 28.74641729 3.57182677 35 4 C35 4.66 35 5.32 35 6 C35.66 6.33 36.32 6.66 37 7 C27.84229939 6.74419831 19.0525258 5.83586607 10.0625 4.0625 C9.18045898 3.89266602 8.29841797 3.72283203 7.38964844 3.54785156 C6.57141602 3.37866211 5.75318359 3.20947266 4.91015625 3.03515625 C4.17933838 2.8844165 3.44852051 2.73367676 2.69555664 2.57836914 C1 2 1 2 0 0 Z " fill="#1A212B" transform="translate(23,7)"/>
<path d="M0 0 C10.06354218 -0.12847075 19.96724089 0.20307162 30 1 C29.67 1.99 29.34 2.98 29 4 C27.39592672 4.02708567 25.7917215 4.04643483 24.1875 4.0625 C22.84751953 4.07990234 22.84751953 4.07990234 21.48046875 4.09765625 C19 4 19 4 16 3 C13.767731 3.08617726 11.53761514 3.23922241 9.3125 3.4375 C7.54326172 3.59025391 7.54326172 3.59025391 5.73828125 3.74609375 C4.83464844 3.82988281 3.93101563 3.91367188 3 4 C2.67 3.01 2.34 2.02 2 1 C1.34 0.67 0.68 0.34 0 0 Z " fill="#282E38" transform="translate(58,12)"/>
<path d="M0 0 C3.407849 2.41389304 4.75297335 3.83897476 5.625 7.9375 C4.75599021 12.19564795 3.06327161 13.93672839 0 17 C-0.66 17 -1.32 17 -2 17 C-1 14 -1 14 1 12 C1.24212873 10.01871492 1.24212873 10.01871492 1.125 7.875 C1.08375 6.59625 1.0425 5.3175 1 4 C-3.26995005 2.57668332 -6.73004995 2.57668332 -11 4 C-11 3.01 -11 2.02 -11 1 C-7.27448166 -0.24183945 -3.86424194 -0.66158228 0 0 Z " fill="#262A32" transform="translate(273,4)"/>
<path d="M0 0 C2.76931368 0.15691907 5.51734107 0.25843134 8.2890625 0.31640625 C9.51669815 0.3475779 9.51669815 0.3475779 10.76913452 0.37937927 C13.38766966 0.44484812 16.00630639 0.50374726 18.625 0.5625 C20.39844807 0.60568776 22.17188581 0.64930214 23.9453125 0.69335938 C28.29677046 0.80052676 32.64833077 0.90180169 37 1 C37 1.33 37 1.66 37 2 C22.81 2 8.62 2 -6 2 C-6 7.28 -6 12.56 -6 18 C-6.33 18 -6.66 18 -7 18 C-7.22119939 15.37549914 -7.42746669 12.75129514 -7.625 10.125 C-7.68945312 9.37863281 -7.75390625 8.63226563 -7.8203125 7.86328125 C-7.96087365 5.9129953 -7.98759849 3.95530533 -8 2 C-5.44123378 -0.55876622 -3.37797483 -1.68898741 0 0 Z " fill="#4C252C" transform="translate(64,206)"/>
<path d="M0 0 C0.66 0.33 1.32 0.66 2 1 C-3.70903849 4.45547067 -6.37296791 5.10688761 -13 5 C-12.98839844 5.92683594 -12.97679687 6.85367188 -12.96484375 7.80859375 C-12.95582031 9.00613281 -12.94679687 10.20367187 -12.9375 11.4375 C-12.92589844 12.63246094 -12.91429687 13.82742187 -12.90234375 15.05859375 C-13 18 -13 18 -14 19 C-15.66617115 19.04063832 -17.33388095 19.042721 -19 19 C-17.68 18.67 -16.36 18.34 -15 18 C-15.17402344 17.45859375 -15.34804687 16.9171875 -15.52734375 16.359375 C-16.09766505 13.51248191 -15.87137301 11.13281478 -15.5625 8.25 C-15.46066406 7.26515625 -15.35882813 6.2803125 -15.25390625 5.265625 C-15.17011719 4.51796875 -15.08632812 3.7703125 -15 3 C-14.33613281 2.95101562 -13.67226562 2.90203125 -12.98828125 2.8515625 C-8.26008988 2.45121929 -4.38156137 1.9169331 0 0 Z " fill="#DE5A4F" transform="translate(233,45)"/>
<path d="M0 0 C7.59 0 15.18 0 23 0 C23 0.33 23 0.66 23 1 C17.06 1.33 11.12 1.66 5 2 C4.67 2.66 4.34 3.32 4 4 C12.25 4 20.5 4 29 4 C29 4.33 29 4.66 29 5 C19.43 5 9.86 5 0 5 C0 3.35 0 1.7 0 0 Z " fill="#E83A31" transform="translate(184,63)"/>
<path d="M0 0 C9.9 0 19.8 0 30 0 C30.33 1.32 30.66 2.64 31 4 C30.34 3.67 29.68 3.34 29 3 C26.82325217 2.84530633 24.6421652 2.74997894 22.4609375 2.68359375 C21.15898437 2.64169922 19.85703125 2.59980469 18.515625 2.55664062 C17.13541955 2.51682701 15.75521117 2.47711478 14.375 2.4375 C12.98696585 2.39430593 11.59894472 2.35069135 10.2109375 2.30664062 C6.80739744 2.20028 3.40378222 2.09825286 0 2 C0 1.34 0 0.68 0 0 Z " fill="#4B2A34" transform="translate(125,49)"/>
<path d="M0 0 C0.33 0 0.66 0 1 0 C1.06058594 1.24136719 1.12117188 2.48273438 1.18359375 3.76171875 C1.26803623 5.40365577 1.35268236 7.04558232 1.4375 8.6875 C1.47681641 9.50412109 1.51613281 10.32074219 1.55664062 11.16210938 C1.59853516 11.95810547 1.64042969 12.75410156 1.68359375 13.57421875 C1.72025146 14.30213623 1.75690918 15.03005371 1.79467773 15.7800293 C1.95753826 18.0507133 1.95753826 18.0507133 2.54101562 20.43164062 C3.04938097 23.27632327 2.93307224 25.64588644 2.66015625 28.51953125 C2.56669922 29.54111328 2.47324219 30.56269531 2.37695312 31.61523438 C2.22129883 33.19788086 2.22129883 33.19788086 2.0625 34.8125 C1.96259766 35.88693359 1.86269531 36.96136719 1.75976562 38.06835938 C1.51294039 40.71291544 1.25947479 43.35666012 1 46 C0.67 46 0.34 46 0 46 C0 30.82 0 15.64 0 0 Z " fill="#E3433C" transform="translate(97,104)"/>
<path d="M0 0 C0.66 0.66 1.32 1.32 2 2 C-2.70806662 7.223235 -7.01565448 11.64910208 -14.44140625 12.171875 C-16.63797113 12.18562501 -18.80797042 12.13420589 -21 12 C-21 11.34 -21 10.68 -21 10 C-20.33613281 9.96261719 -19.67226562 9.92523438 -18.98828125 9.88671875 C-11.97783607 9.43243205 -11.97783607 9.43243205 -6 6 C-4.97695052 4.34738161 -3.97383946 2.68208635 -3 1 C-2.01 0.67 -1.02 0.34 0 0 Z " fill="#2A303A" transform="translate(263,27)"/>
<path d="M0 0 C0.78375 0.04125 1.5675 0.0825 2.375 0.125 C2.375 0.785 2.375 1.445 2.375 2.125 C1.055 2.455 -0.265 2.785 -1.625 3.125 C-1.955 10.385 -2.285 17.645 -2.625 25.125 C-3.285 25.455 -3.945 25.785 -4.625 26.125 C-4.68285647 22.16672765 -4.71854717 18.2085633 -4.75 14.25 C-4.76675781 13.12207031 -4.78351563 11.99414062 -4.80078125 10.83203125 C-4.80722656 9.75566406 -4.81367188 8.67929688 -4.8203125 7.5703125 C-4.83078613 6.57531738 -4.84125977 5.58032227 -4.85205078 4.55517578 C-4.51996772 1.00081583 -3.54331043 0.16872907 0 0 Z " fill="#0F0F16" transform="translate(176.625,205.875)"/>
<path d="M0 0 C0 0.33 0 0.66 0 1 C-0.85464844 0.98839844 -1.70929688 0.97679687 -2.58984375 0.96484375 C-3.69457031 0.95582031 -4.79929688 0.94679688 -5.9375 0.9375 C-7.59072266 0.92009766 -7.59072266 0.92009766 -9.27734375 0.90234375 C-11.91447634 0.68737429 -11.91447634 0.68737429 -13 2 C-15.35313555 2.07271741 -17.70833668 2.08370868 -20.0625 2.0625 C-21.35285156 2.05347656 -22.64320313 2.04445313 -23.97265625 2.03515625 C-24.97167969 2.02355469 -25.97070312 2.01195312 -27 2 C-26.34 1.67 -25.68 1.34 -25 1 C-25 0.34 -25 -0.32 -25 -1 C-16.25815325 -1.86252888 -8.55226763 -2.4348809 0 0 Z " fill="#292D36" transform="translate(217,14)"/>
<path d="M0 0 C3.0271766 0.5688007 6.01489806 1.24187887 9 2 C5.44181064 4.26273207 2.87452049 4.07331744 -1.25 3.625 C-2.32765625 3.51414062 -3.4053125 3.40328125 -4.515625 3.2890625 C-5.33546875 3.19367187 -6.1553125 3.09828125 -7 3 C-7.66 4.98 -8.32 6.96 -9 9 C-9.99 9 -10.98 9 -12 9 C-11.66466723 5.98200506 -11.13434402 4.19118187 -9.375 1.6875 C-6.03286562 -0.68717443 -4.05533598 -0.39888551 0 0 Z " fill="#25262F" transform="translate(14,4)"/>
<path d="M0 0 C2.3125 -0.25 2.3125 -0.25 5 0 C7.01527842 1.77625703 7.92257396 3.17318892 8.17553711 5.87451172 C8.14287363 8.11774718 7.99927047 10.32691405 7.8125 12.5625 C7.76802734 13.33013672 7.72355469 14.09777344 7.67773438 14.88867188 C7.41086985 18.66760532 7.13594585 20.79608123 5 24 C4.67 17.07 4.34 10.14 4 3 C2.68 2.67 1.36 2.34 0 2 C0 1.34 0 0.68 0 0 Z " fill="#101018" transform="translate(101,206)"/>
<path d="M0 0 C0.33 0 0.66 0 1 0 C1.19406478 1.64507218 1.38007935 3.29109594 1.5625 4.9375 C1.66691406 5.85402344 1.77132812 6.77054687 1.87890625 7.71484375 C1.91886719 8.46894531 1.95882812 9.22304687 2 10 C1.67 10.33 1.34 10.66 1 11 C0.84417697 12.34015221 0.74955858 13.68758903 0.68359375 15.03515625 C0.62075195 16.24848633 0.62075195 16.24848633 0.55664062 17.48632812 C0.51732422 18.33646484 0.47800781 19.18660156 0.4375 20.0625 C0.39431641 20.91650391 0.35113281 21.77050781 0.30664062 22.65039062 C0.20023298 24.76672037 0.09958269 26.88333813 0 29 C-0.33 29 -0.66 29 -1 29 C-1 22.4 -1 15.8 -1 9 C-1.66 9 -2.32 9 -3 9 C-3 8.34 -3 7.68 -3 7 C-2.34 7 -1.68 7 -1 7 C-0.67 4.69 -0.34 2.38 0 0 Z " fill="#EB4336" transform="translate(183,117)"/>
<path d="M0 0 C0.99 0 1.98 0 3 0 C3 3 3 6 3 9 C0.69 9 -1.62 9 -4 9 C-3.525625 8.443125 -3.05125 7.88625 -2.5625 7.3125 C-0.87604004 4.81653926 -0.41046893 2.9553763 0 0 Z " fill="#42343C" transform="translate(247,28)"/>
<path d="M0 0 C0.66 0 1.32 0 2 0 C2.33 5.28 2.66 10.56 3 16 C2.01 16 1.02 16 0 16 C-0.19672365 14.27185839 -0.38196799 12.54240803 -0.5625 10.8125 C-0.71912109 9.36810547 -0.71912109 9.36810547 -0.87890625 7.89453125 C-0.99758751 5.05766623 -0.67765639 2.74576329 0 0 Z " fill="#30313D" transform="translate(55,209)"/>
<path d="M0 0 C0.33 0 0.66 0 1 0 C1 2.64 1 5.28 1 8 C6.94 8 12.88 8 19 8 C19 8.33 19 8.66 19 9 C12.4 9.33 5.8 9.66 -1 10 C-0.67 6.7 -0.34 3.4 0 0 Z " fill="#C5493F" transform="translate(213,64)"/>
<path d="M0 0 C2.89884776 3.49992118 3.31147566 5.43169027 3 10 C3.99 10.33 4.98 10.66 6 11 C6 11.66 6 12.32 6 13 C4.33388095 13.042721 2.66617115 13.04063832 1 13 C0 12 0 12 -0.09765625 9.27734375 C-0.08605469 8.17519531 -0.07445312 7.07304688 -0.0625 5.9375 C-0.05347656 4.83277344 -0.04445312 3.72804687 -0.03515625 2.58984375 C-0.02355469 1.73519531 -0.01195312 0.88054688 0 0 Z " fill="#DC5149" transform="translate(60,51)"/>
<path d="M0 0 C0 0.66 0 1.32 0 2 C-5.38027025 3.19088986 -10.45291384 4.2919519 -16 4 C-16.33 3.34 -16.66 2.68 -17 2 C-15.10507994 1.66151348 -13.20901534 1.32943089 -11.3125 1 C-9.72888672 0.7215625 -9.72888672 0.7215625 -8.11328125 0.4375 C-5.35095938 0.04931926 -2.78257957 -0.08259976 0 0 Z " fill="#181A1E" transform="translate(252,8)"/>
<path d="M0 0 C0.66 0.33 1.32 0.66 2 1 C1.360625 1.78375 0.72125 2.5675 0.0625 3.375 C-1.98142313 5.79539281 -1.98142313 5.79539281 -3 8 C-3.66 8 -4.32 8 -5 8 C-5.66 9.32 -6.32 10.64 -7 12 C-7.66 12 -8.32 12 -9 12 C-9 10.35 -9 8.7 -9 7 C-7.68 7 -6.36 7 -5 7 C-5 6.01 -5 5.02 -5 4 C-2.5 1.8125 -2.5 1.8125 0 0 Z " fill="#CB554E" transform="translate(244,33)"/>
<path d="M0 0 C0.33 0 0.66 0 1 0 C1.28875 0.928125 1.5775 1.85625 1.875 2.8125 C2.8875 6.09791667 2.8875 6.09791667 5 9 C-1.625 9.25 -1.625 9.25 -5 7 C-3.35 6.67 -1.7 6.34 0 6 C-0.2784375 4.7934375 -0.2784375 4.7934375 -0.5625 3.5625 C-0.706875 2.716875 -0.85125 1.87125 -1 1 C-0.67 0.67 -0.34 0.34 0 0 Z " fill="#41353F" transform="translate(32,28)"/>
<path d="M0 0 C2 3 2 3 2 9 C-4.27 8.67 -10.54 8.34 -17 8 C-17 7.67 -17 7.34 -17 7 C-11.39 7 -5.78 7 0 7 C0 4.69 0 2.38 0 0 Z " fill="#C3473E" transform="translate(66,65)"/>
<path d="M0 0 C0 0.66 0 1.32 0 2 C-1.98 2 -3.96 2 -6 2 C-6 7.28 -6 12.56 -6 18 C-6.33 18 -6.66 18 -7 18 C-7.22119939 15.37549914 -7.42746669 12.75129514 -7.625 10.125 C-7.68945312 9.37863281 -7.75390625 8.63226563 -7.8203125 7.86328125 C-7.96087365 5.9129953 -7.98759849 3.95530533 -8 2 C-5.44123378 -0.55876622 -3.37797483 -1.68898741 0 0 Z " fill="#2A212A" transform="translate(64,206)"/>
<path d="M0 0 C0.825 0.309375 1.65 0.61875 2.5 0.9375 C6.39126155 2.11877583 9.96166953 2.58224168 14 3 C14 3.66 14 4.32 14 5 C4.58997722 5.3690205 4.58997722 5.3690205 0 3 C0 2.01 0 1.02 0 0 Z " fill="#211F26" transform="translate(24,34)"/>
<path d="M0 0 C4.62 0 9.24 0 14 0 C13.67 0.66 13.34 1.32 13 2 C10.05859375 2.4140625 10.05859375 2.4140625 6.4375 2.625 C5.23996094 2.69976562 4.04242188 2.77453125 2.80859375 2.8515625 C1.88175781 2.90054688 0.95492187 2.94953125 0 3 C0 2.01 0 1.02 0 0 Z " fill="#DC2D27" transform="translate(214,73)"/>
<path d="M0 0 C0.66 0 1.32 0 2 0 C2.33 1.32 2.66 2.64 3 4 C3.66 4 4.32 4 5 4 C5.66 5.98 6.32 7.96 7 10 C3.64501065 8.61172854 1.84949545 7.14414226 0 4 C0 2.68 0 1.36 0 0 Z " fill="#D6564D" transform="translate(38,35)"/>
<path d="M0 0 C1 1.33333333 2 2.66666667 3 4 C3.556875 4.70125 4.11375 5.4025 4.6875 6.125 C6 8 6 8 6 10 C2.66282451 8.6190998 0.77698964 7.1798762 -1 4 C-0.6875 1.75 -0.6875 1.75 0 0 Z " fill="#2F3238" transform="translate(3,11)"/>
<path d="M0 0 C0.99 0 1.98 0 3 0 C3.66 2.64 4.32 5.28 5 8 C3.68 8 2.36 8 1 8 C-0.35439668 5.29120665 -0.06501451 2.99066732 0 0 Z " fill="#22262D" transform="translate(55,225)"/>
<path d="M0 0 C-0.33 0.66 -0.66 1.32 -1 2 C-3.64860427 2.59355614 -6.29197322 2.74209269 -9 3 C-9 2.01 -9 1.02 -9 0 C-5.62182575 -0.84454356 -3.32534757 -1.10844919 0 0 Z " fill="#272B31" transform="translate(261,7)"/>
<path d="M0 0 C-2 2 -2 2 -4.1640625 2.1953125 C-5.38222656 2.16050781 -5.38222656 2.16050781 -6.625 2.125 C-7.44226563 2.10695312 -8.25953125 2.08890625 -9.1015625 2.0703125 C-9.72804687 2.04710937 -10.35453125 2.02390625 -11 2 C-11 1.34 -11 0.68 -11 0 C-3.375 -1.125 -3.375 -1.125 0 0 Z " fill="#1C1820" transform="translate(253,37)"/>
<path d="M0 0 C1.64666203 0.1135629 3.29236082 0.24117381 4.9375 0.375 C5.85402344 0.44460937 6.77054688 0.51421875 7.71484375 0.5859375 C8.84599609 0.79089844 8.84599609 0.79089844 10 1 C10.33 1.66 10.66 2.32 11 3 C3.57142857 3.28571429 3.57142857 3.28571429 0 1 C0 0.67 0 0.34 0 0 Z " fill="#1F2730" transform="translate(23,7)"/>
<path d="M0 0 C2.97 0 5.94 0 9 0 C10.43088528 2.86177057 9.59991697 4.93375773 9 8 C8.67 8 8.34 8 8 8 C7.67 5.69 7.34 3.38 7 1 C4.69 1 2.38 1 0 1 C0 0.67 0 0.34 0 0 Z " fill="#F75750" transform="translate(53,48)"/>
<path d="M0 0 C0 0.33 0 0.66 0 1 C-4.95 0.67 -9.9 0.34 -15 0 C-15 -0.33 -15 -0.66 -15 -1 C-4.44191344 -2.51708428 -4.44191344 -2.51708428 0 0 Z " fill="#21242B" transform="translate(226,13)"/>
<path d="M0 0 C0.99 0.33 1.98 0.66 3 1 C1.38405168 3.04119788 -0.2856382 5.04072937 -2 7 C-2.66 7 -3.32 7 -4 7 C-3 4 -3 4 -1 2 C-0.67 1.34 -0.34 0.68 0 0 Z " fill="#2A2E35" transform="translate(275,14)"/>
<path d="M0 0 C-0.33 0.66 -0.66 1.32 -1 2 C-4.0625 2.625 -4.0625 2.625 -7 3 C-7 2.01 -7 1.02 -7 0 C-3.86650268 -1.04449911 -3.01031744 -0.93423645 0 0 Z " fill="#1C1D26" transform="translate(269,5)"/>
<path d="" fill="#FFFFFF" transform="translate(0,0)"/>
<path d="" fill="#FFFFFF" transform="translate(0,0)"/>
<path d="" fill="#FFFFFF" transform="translate(0,0)"/>
<path d="" fill="#FFFFFF" transform="translate(0,0)"/>
<path d="" fill="#FFFFFF" transform="translate(0,0)"/>
<path d="" fill="#FFFFFF" transform="translate(0,0)"/>
<path d="" fill="#FFFFFF" transform="translate(0,0)"/>
<path d="" fill="#FFFFFF" transform="translate(0,0)"/>
<path d="" fill="#FFFFFF" transform="translate(0,0)"/>
<path d="" fill="#FFFFFF" transform="translate(0,0)"/>
<path d="" fill="#FFFFFF" transform="translate(0,0)"/>
<path d="" fill="#FFFFFF" transform="translate(0,0)"/>
<path d="" fill="#FFFFFF" transform="translate(0,0)"/>
<path d="" fill="#FFFFFF" transform="translate(0,0)"/>
<path d="" fill="#FFFFFF" transform="translate(0,0)"/>
<path d="" fill="#FFFFFF" transform="translate(0,0)"/>
<path d="" fill="#FFFFFF" transform="translate(0,0)"/>
<path d="" fill="#FFFFFF" transform="translate(0,0)"/>
<path d="" fill="#FFFFFF" transform="translate(0,0)"/>
<path d="" fill="#FFFFFF" transform="translate(0,0)"/>
<path d="" fill="#FFFFFF" transform="translate(0,0)"/>
<path d="" fill="#FFFFFF" transform="translate(0,0)"/>
<path d="" fill="#FFFFFF" transform="translate(0,0)"/>
<path d="" fill="#FFFFFF" transform="translate(0,0)"/>
<path d="" fill="#FFFFFF" transform="translate(0,0)"/>
<path d="" fill="#FFFFFF" transform="translate(0,0)"/>
<path d="" fill="#FFFFFF" transform="translate(0,0)"/>
<path d="" fill="#FFFFFF" transform="translate(0,0)"/>
<path d="" fill="#FFFFFF" transform="translate(0,0)"/>
<path d="" fill="#FFFFFF" transform="translate(0,0)"/>
<path d="" fill="#FFFFFF" transform="translate(0,0)"/>
<path d="" fill="#FFFFFF" transform="translate(0,0)"/>
<path d="" fill="#FFFFFF" transform="translate(0,0)"/>
<path d="" fill="#FFFFFF" transform="translate(0,0)"/>
<path d="" fill="#FFFFFF" transform="translate(0,0)"/>
<path d="" fill="#FFFFFF" transform="translate(0,0)"/>
<path d="" fill="#FFFFFF" transform="translate(0,0)"/>
<path d="" fill="#FFFFFF" transform="translate(0,0)"/>
<path d="" fill="#FFFFFF" transform="translate(0,0)"/>
<path d="" fill="#FFFFFF" transform="translate(0,0)"/>
<path d="" fill="#FFFFFF" transform="translate(0,0)"/>
<path d="" fill="#FFFFFF" transform="translate(0,0)"/>
<path d="" fill="#FFFFFF" transform="translate(0,0)"/>
<path d="" fill="#FFFFFF" transform="translate(0,0)"/>
<path d="" fill="#FFFFFF" transform="translate(0,0)"/>
<path d="" fill="#FFFFFF" transform="translate(0,0)"/>
<path d="" fill="#FFFFFF" transform="translate(0,0)"/>
<path d="" fill="#FFFFFF" transform="translate(0,0)"/>
<path d="" fill="#FFFFFF" transform="translate(0,0)"/>
<path d="" fill="#FFFFFF" transform="translate(0,0)"/>
<path d="" fill="#FFFFFF" transform="translate(0,0)"/>
<path d="" fill="#FFFFFF" transform="translate(0,0)"/>
<path d="" fill="#FFFFFF" transform="translate(0,0)"/>
<path d="" fill="#FFFFFF" transform="translate(0,0)"/>
<path d="" fill="#FFFFFF" transform="translate(0,0)"/>
<path d="" fill="#FFFFFF" transform="translate(0,0)"/>
<path d="" fill="#FFFFFF" transform="translate(0,0)"/>
<path d="" fill="#FFFFFF" transform="translate(0,0)"/>
<path d="" fill="#FFFFFF" transform="translate(0,0)"/>
<path d="" fill="#FFFFFF" transform="translate(0,0)"/>
<path d="" fill="#FFFFFF" transform="translate(0,0)"/>
<path d="" fill="#FFFFFF" transform="translate(0,0)"/>
<path d="" fill="#FFFFFF" transform="translate(0,0)"/>
<path d="" fill="#FFFFFF" transform="translate(0,0)"/>
</svg>
